# xmcd
# Copyright (C) 1995-1998 Ti Kan
#
# Track frame offsets:
#       150
#       14426
#       29537
#       45703
#
# Disc length: 786 seconds
#
# Revision: 0
# Processed by: cddbd v1.5.2PL0 Copyright (c) Steve Scherf et al.
# Submitted via: CD-Import v1.0
#
DISCID=2c031004
DTITLE=Lisa Catena - Lisa Catena
DYEAR=2008
DGENRE=
TTITLE0=Änglische Fuessball
TTITLE1=I Wott Di
TTITLE2=Tue Mer Chly Weh
TTITLE3=Villech
EXTD=
EXTT0=
EXTT1=
EXTT2=
EXTT3=
PLAYORDER=
